<?xml version="1.0" encoding="utf-8"?>
<!-- Svg Vector Icons : http://www.onlinewebfonts.com/icon -->
<!DOCTYPE svg PUBLIC "-//W3C//DTD SVG 1.1//EN" "http://www.w3.org/Graphics/SVG/1.1/DTD/svg11.dtd">
<svg version="1.1" xmlns="http://www.w3.org/2000/svg" xmlns:xlink="http://www.w3.org/1999/xlink" x="0px" y="0px" viewBox="0 0 256 256" enable-background="new 0 0 256 256" xml:space="preserve">
<metadata> Svg Vector Icons : http://www.onlinewebfonts.com/icon </metadata>
<g><g><g><path fill="#000000" d="M119.9,10.1c-0.9,0.1-3.7,0.4-6.2,0.7C92.9,13.1,71.7,22,54.5,35.5c-4.3,3.4-15.6,14.7-19,19c-13.5,17.2-21.8,37-24.9,59.2c-0.8,5.9-0.8,22.8,0,28.7c3,22.2,11.3,41.9,24.9,59.1c4.4,5.6,15.8,16.6,21.6,20.9c17,12.6,35.3,20,56.5,22.9c5.9,0.8,22.8,0.8,28.7,0c22.2-3,42-11.3,59.1-24.9c4.3-3.4,15.6-14.7,19-19c13.5-17.2,21.8-37,24.9-59.1c0.8-5.9,0.8-22.8,0-28.7c-2.9-21.2-10.3-39.5-22.9-56.5c-4.4-5.9-15.4-17.3-20.9-21.6c-16.9-13.2-36.1-21.5-57.5-24.6C139.4,10.2,123.2,9.7,119.9,10.1z M138.1,23.7c15.5,1.6,30,6.3,43.2,14c14.5,8.5,28.5,22.6,37.1,37.1c19.3,32.9,19.3,73.7,0,106.6c-8.5,14.5-22.6,28.5-37.1,37.1c-32.9,19.3-73.7,19.3-106.6,0c-14.5-8.5-28.5-22.6-37.1-37.1c-19.3-32.9-19.3-73.8,0-106.6c8.5-14.5,22.6-28.5,37.1-37.1c12.6-7.4,28.1-12.5,42.3-14C122.8,23.1,132.4,23.1,138.1,23.7z"/><path fill="#000000" d="M102.7,75.2c-3.2,1.5-3-1.7-3,54.6c0,43.4,0.1,51.3,0.7,52.1c0.6,0.8,1.4,0.9,5.7,1.1c3.9,0.1,5.3,0,6.5-0.6l1.5-0.8v-22.9v-23h18.8c15.5,0,19-0.1,19.8-0.7c1.3-1,1.6-8.8,0.5-10.6l-0.8-1.2h-19.2h-19.2v-18.4V86.4h20c16.5,0,20.2-0.1,21-0.7c1.3-1,1.6-8.3,0.5-10.1l-0.8-1.2h-25.3C107.2,74.4,104.1,74.5,102.7,75.2z"/></g></g></g>
</svg>